<svg id="Component_9_1" data-name="Component 9 – 1" xmlns="http://www.w3.org/2000/svg" width="30" height="30" viewBox="0 0 30 30">
  <g id="Ellipse_2" data-name="Ellipse 2" fill="none" stroke="#d4d4d4" stroke-width="1">
    <circle cx="15" cy="15" r="15" stroke="none"/>
    <circle cx="15" cy="15" r="14.5" fill="none"/>
  </g>
  <path id="Icon_ionic-md-notifications-outline" data-name="Icon ionic-md-notifications-outline" d="M12.494,6.187a5.61,5.61,0,0,1,.928.174,3.955,3.955,0,0,1,3.014,3.875v4.952l.362.363.3.3H7.81l.3-.3.362-.363V10.236a3.955,3.955,0,0,1,3.014-3.875,6.87,6.87,0,0,1,.928-.174m.039-2.812A1.186,1.186,0,0,0,11.25,4.586v.565a5.232,5.232,0,0,0-4.018,5.085v4.439L5.625,16.29V17.1h13.66V16.29l-1.607-1.614V10.236A5.232,5.232,0,0,0,13.66,5.151V4.586a1.186,1.186,0,0,0-1.205-1.211ZM14.062,17.9H10.848a1.607,1.607,0,1,0,3.214,0Z" transform="translate(2.375 3.625)"/>
</svg>
