<svg xmlns="http://www.w3.org/2000/svg" width="15.781" height="15.781" viewBox="0 0 15.781 15.781">
  <g id="emergency-kit-svgrepo-com" transform="translate(0.35 0.346)">
    <path id="Path_839" data-name="Path 839" d="M13.175,0H1.906A1.906,1.906,0,0,0,0,1.91V13.179a1.906,1.906,0,0,0,1.906,1.906H13.175a1.906,1.906,0,0,0,1.906-1.906V1.91A1.906,1.906,0,0,0,13.175,0ZM7.541,13.071a5.527,5.527,0,1,1,5.527-5.527A5.527,5.527,0,0,1,7.541,13.071Z" fill="none" stroke="#707070" stroke-width="0.7"/>
    <path id="Path_840" data-name="Path 840" d="M134,130.371h-1.446v-1.446a.465.465,0,0,0-.465-.465H130.85a.465.465,0,0,0-.465.465v1.446h-1.445a.465.465,0,0,0-.465.465v1.234a.465.465,0,0,0,.465.465h1.445v1.446a.465.465,0,0,0,.465.465h1.234a.465.465,0,0,0,.465-.465v-1.446H134a.465.465,0,0,0,.465-.465v-1.234A.465.465,0,0,0,134,130.371Z" transform="translate(-123.926 -123.909)" fill="#707070"/>
  </g>
</svg>
