<svg xmlns="http://www.w3.org/2000/svg" width="14.112" height="14.114" viewBox="0 0 14.112 14.114">
  <g id="Group_112" data-name="Group 112" transform="translate(258.568 -245)">
    <path id="Path_81" data-name="Path 81" d="M-129.962,252.359a.171.171,0,0,0-.02.036,1.033,1.033,0,0,1-1.089.839h-4.009c-.092,0-.184,0-.276,0a1.036,1.036,0,0,1-1.076-1.077c0-.445,0-.891,0-1.336v-4.574a1.078,1.078,0,0,1,.875-1.246h4.741a1.058,1.058,0,0,1,.616.381,3.807,3.807,0,0,1,.238.5Zm-.882-3.244q0-1.495,0-2.989c0-.209-.033-.244-.235-.244h-4.242c-.185,0-.228.041-.228.225q0,3.01,0,6.019c0,.181.045.226.23.226h4.242c.193,0,.233-.041.233-.234Q-130.843,250.616-130.844,249.115Z" transform="translate(-114.494)" fill="#0168da"/>
    <path id="Path_82" data-name="Path 82" d="M-252.972,245a3.087,3.087,0,0,1,.52.264.947.947,0,0,1,.354.789c0,.868.006,1.736,0,2.6a1.02,1.02,0,0,1-1.049,1.047q-2.184.01-4.368,0a1.025,1.025,0,0,1-1.05-1.072q0-1.268,0-2.536a1.026,1.026,0,0,1,.821-1.074.126.126,0,0,0,.033-.022Zm-2.362.882h-2.121c-.194,0-.23.037-.23.235q0,1.239,0,2.479c0,.185.042.228.225.229h4.255c.181,0,.226-.046.226-.23q0-1.239,0-2.479c0-.193-.041-.233-.234-.233Z" fill="#0168da"/>
    <path id="Path_83" data-name="Path 83" d="M-130.038,399.149c-.025.078-.044.158-.076.233a.971.971,0,0,1-.926.644c-1.488.011-2.976.008-4.464,0a1.007,1.007,0,0,1-1-1.008c-.014-.9-.016-1.791,0-2.687a1.016,1.016,0,0,1,1.071-1.008c1.038,0,2.076,0,3.114,0h1.171a1.032,1.032,0,0,1,1.088.839.171.171,0,0,0,.02.036Zm-3.233,0h2.121c.193,0,.23-.038.23-.235q0-1.239,0-2.479c0-.185-.042-.228-.225-.228H-135.4c-.181,0-.225.045-.225.23q0,1.239,0,2.479c0,.193.041.233.234.233Z" transform="translate(-114.418 -140.919)" fill="#0168da"/>
    <path id="Path_84" data-name="Path 84" d="M-258.561,343.059q0-1.508,0-3.017a1.035,1.035,0,0,1,1.1-1.1q2.128,0,4.256,0a1.038,1.038,0,0,1,1.109,1.113q0,3,0,6.006a1.038,1.038,0,0,1-1.12,1.115h-4.229a1.036,1.036,0,0,1-1.121-1.125Q-258.562,344.554-258.561,343.059Zm.882-.005q0,1.494,0,2.989c0,.217.031.249.244.249h4.215c.211,0,.247-.036.247-.248q0-2.989,0-5.978c0-.2-.04-.244-.24-.244h-4.229c-.2,0-.238.039-.238.243Q-257.68,341.559-257.68,343.054Z" transform="translate(-0.006 -88.062)" fill="#0168da"/>
  </g>
</svg>
