<svg xmlns="http://www.w3.org/2000/svg" width="13.718" height="17.86" viewBox="0 0 13.718 17.86">
  <g id="Group_113" data-name="Group 113" transform="translate(-216 -651.758)">
    <g id="Group_114" data-name="Group 114" transform="translate(216 651.758)">
      <path id="Path_92" data-name="Path 92" d="M498.338,417.93a13.508,13.508,0,0,1-4.944-.786,5.78,5.78,0,0,1-1.137-.623,2.244,2.244,0,0,1-.987-2.122,6.867,6.867,0,0,1,13.688-.316,2.536,2.536,0,0,1-1.552,2.817,9.4,9.4,0,0,1-3.48.926C499.325,417.887,498.719,417.906,498.338,417.93Zm-.223-1.136.01.078c1.038-.133,2.08-.239,3.111-.41a4.853,4.853,0,0,0,2.061-.821,1.165,1.165,0,0,0,.549-1.162c-.034-.252-.054-.506-.1-.757a5.724,5.724,0,0,0-11.348.875,1.022,1.022,0,0,0,.412.914,5.086,5.086,0,0,0,1.048.6A11.973,11.973,0,0,0,498.115,416.794Z" transform="translate(-491.263 -400.071)" fill="#757575"/>
      <path id="Path_93" data-name="Path 93" d="M536.143,307.8a3.469,3.469,0,1,1,3.466,3.487A3.476,3.476,0,0,1,536.143,307.8Zm5.8.023a2.334,2.334,0,1,0-2.347,2.331A2.336,2.336,0,0,0,541.945,307.827Z" transform="translate(-532.748 -304.351)" fill="#757575"/>
    </g>
  </g>
</svg>
