<svg xmlns="http://www.w3.org/2000/svg" width="11.474" height="16.353" viewBox="0 0 11.474 16.353">
  <g id="Group_115" data-name="Group 115" transform="translate(1443.876 -348)">
    <path id="Path_100" data-name="Path 100" d="M-1438.012,348a.7.7,0,0,1,.512.8c-.011.169,0,.34,0,.5.285.078.564.138.833.231a4.456,4.456,0,0,1,2.989,4.153c.011,1.3.006,2.6,0,3.9a.706.706,0,0,0,.371.681,1.891,1.891,0,0,1,.833,2.144,1.91,1.91,0,0,1-1.817,1.392q-3.848.006-7.7,0a1.913,1.913,0,0,1-1.821-1.407,1.894,1.894,0,0,1,.865-2.145.649.649,0,0,0,.343-.616q0-1.932,0-3.863a4.456,4.456,0,0,1,2.8-4.159c.322-.13.666-.207,1.026-.316,0-.145.01-.32,0-.493a.7.7,0,0,1,.512-.8Zm-.144,12.52q1.9,0,3.809,0a.633.633,0,0,0,.644-.468.616.616,0,0,0-.3-.722,1.846,1.846,0,0,1-.949-1.723c0-1.261,0-2.523,0-3.784a4.021,4.021,0,0,0-.063-.7,3.185,3.185,0,0,0-3.692-2.516,3.186,3.186,0,0,0-2.617,3.181c0,1.3.007,2.6,0,3.9a1.79,1.79,0,0,1-.919,1.627.765.765,0,0,0-.217.183.594.594,0,0,0-.071.66.614.614,0,0,0,.589.364Q-1440.052,360.521-1438.156,360.52Z" transform="translate(0)" fill="#757575"/>
    <path id="Path_101" data-name="Path 101" d="M-1353.6,703.238l-.13-.057a.64.64,0,0,1-.371-.691.626.626,0,0,1,.6-.526q1.306-.01,2.613,0a.626.626,0,0,1,.6.526.64.64,0,0,1-.371.691l-.13.057Z" transform="translate(-85.94 -338.885)" fill="#757575"/>
  </g>
</svg>
