<svg xmlns="http://www.w3.org/2000/svg" width="18.979" height="14.516" viewBox="0 0 18.979 14.516">
  <g id="Group_114" data-name="Group 114" transform="translate(-1248 -876.785)">
    <path id="Path_94" data-name="Path 94" d="M1495.013,988.587a.471.471,0,0,1-.481.265c-2.056-.006-4.112,0-6.168,0-.35,0-.474-.118-.47-.462a14.558,14.558,0,0,1,.039-1.624,3.436,3.436,0,0,1,1.944-2.726l.114-.06s.007-.01.019-.03a2.481,2.481,0,0,1-1.039-2.3,2.391,2.391,0,0,1,.851-1.63,2.5,2.5,0,1,1,3.064,3.941c.045.027.085.053.127.075a3.517,3.517,0,0,1,1.968,2.735.416.416,0,0,0,.032.083Zm-6.377-.491h5.607a10.365,10.365,0,0,0-.008-1.247,2.78,2.78,0,0,0-2.507-2.428,2.838,2.838,0,0,0-2.9,1.767A5.068,5.068,0,0,0,1488.636,988.1Zm1.062-6.2a1.753,1.753,0,1,0,1.759-1.745A1.754,1.754,0,0,0,1489.7,981.9Z" transform="translate(-228.034 -97.552)" fill="#757575"/>
    <path id="Path_95" data-name="Path 95" d="M1248,986.9c.043-.191.076-.384.13-.572a3.53,3.53,0,0,1,1.837-2.231l.165-.086a2.5,2.5,0,1,1,2.862-.006c.051.03.094.057.139.081a3.505,3.505,0,0,1,1.985,3.186c.011.4,0,.8,0,1.2,0,.3-.134.426-.432.426-2.081,0-4.162,0-6.243,0a.459.459,0,0,1-.444-.265Zm6.378,1.251c0-.317,0-.624,0-.93a2.811,2.811,0,0,0-1.882-2.6,2.846,2.846,0,0,0-3.115.869,3.52,3.52,0,0,0-.624,2.665Zm-1.064-6.186a1.753,1.753,0,1,0-1.748,1.741A1.749,1.749,0,0,0,1253.315,981.966Z" transform="translate(0 -97.603)" fill="#757575"/>
    <path id="Path_96" data-name="Path 96" d="M1367.941,882.794c-.165,0-.3.006-.434,0a1.182,1.182,0,0,1-1.137-1.164q-.012-1.84,0-3.68a1.171,1.171,0,0,1,1.162-1.157q2.427-.013,4.854,0a1.179,1.179,0,0,1,1.174,1.185q.01,1.812,0,3.625a1.185,1.185,0,0,1-1.2,1.194c-.753.009-1.507,0-2.26.007a.434.434,0,0,0-.27.112c-.4.385-.791.78-1.182,1.174a.387.387,0,0,1-.7-.284C1367.942,883.478,1367.941,883.152,1367.941,882.794Zm.741.146.042.025c.234-.235.475-.464.7-.707a.618.618,0,0,1,.492-.2c.784.006,1.569,0,2.353,0,.384,0,.551-.169.551-.554q0-1.711,0-3.422c0-.381-.171-.553-.553-.554q-2.316,0-4.632,0a.465.465,0,0,0-.528.521q0,1.739,0,3.477a.469.469,0,0,0,.518.533c.21.005.42,0,.63,0,.289.005.419.134.425.419C1368.685,882.634,1368.682,882.787,1368.682,882.94Z" transform="translate(-112.514)" fill="#757575"/>
    <path id="Path_97" data-name="Path 97" d="M1433.256,1065.776a.37.37,0,0,1-.739-.014.37.37,0,0,1,.739.014Z" transform="translate(-175.397 -179.297)" fill="#757575"/>
    <path id="Path_98" data-name="Path 98" d="M1471.622,1065.765a.371.371,0,0,1-.356.371.38.38,0,0,1-.382-.369.367.367,0,0,1,.379-.366A.358.358,0,0,1,1471.622,1065.765Z" transform="translate(-211.868 -179.295)" fill="#757575"/>
    <path id="Path_99" data-name="Path 99" d="M1394.184,1065.771a.357.357,0,0,1,.354-.368.368.368,0,0,1,.384.361.381.381,0,0,1-.378.373A.37.37,0,0,1,1394.184,1065.771Z" transform="translate(-138.959 -179.296)" fill="#757575"/>
  </g>
</svg>
