<svg xmlns="http://www.w3.org/2000/svg" width="30.199" height="51.929" viewBox="0 0 30.199 51.929">
  <g id="Group_26" data-name="Group 26" transform="translate(0 0)">
    <g id="Group_16" data-name="Group 16" transform="translate(0 0)">
      <path id="Path_20" data-name="Path 20" d="M73.663,43.33c1.521-3.583.19-6.744-2.4-9.146a18.1,18.1,0,0,0-10.127-4.342c10.852,6.324,7.615,11.277,2.551,16.688-5.1,5.411-12.108,11.354-8.6,18.63-.344-4.5,3.692-8.382,8.071-11.924s9.1-6.705,10.51-9.905Z" transform="translate(-54.138 -13.23)" fill="#09b5a9" fill-rule="evenodd"/>
      <path id="Path_21" data-name="Path 21" d="M60.985,41.431c-1.56,3.58-.227,6.742,2.363,9.143a18.194,18.194,0,0,0,10.126,4.344c-10.852-6.361-7.617-11.276-2.512-16.688,5.065-5.409,12.07-11.352,8.606-18.63.3,4.457-3.695,8.382-8.111,11.924-4.379,3.544-9.1,6.668-10.471,9.907Z" transform="translate(-50.295 -19.6)" fill="#09b5a9" fill-rule="evenodd"/>
      <path id="Path_22" data-name="Path 22" d="M61.921,35.44c-1.56,3.58-.191,6.78,2.4,9.141a12.259,12.259,0,0,0,2.1,1.6l-.115-.115a10.953,10.953,0,0,1-2.4-11.276,17.506,17.506,0,0,1,3.617-5.373c-2.551,2.058-4.721,4.037-5.6,6.021Z" transform="translate(-49.708 -13.493)" fill="#352848" fill-rule="evenodd"/>
      <path id="Path_23" data-name="Path 23" d="M66.056,39.7a3.827,3.827,0,0,0-.266-4.039,2.823,2.823,0,0,0-.42-.534,6.079,6.079,0,0,1,0,5.03c-.152.307-.342.608-.532.952A5.757,5.757,0,0,0,66.056,39.7Z" transform="translate(-47.483 -9.943)" fill-rule="evenodd"/>
      <path id="Path_24" data-name="Path 24" d="M61.861,27.395c1.674-1.753,4.149-2.4,5.443-1.448,1.332.915.989,3.048-.723,4.8C64.9,32.462,62.43,33.11,61.136,32.2c-1.333-.954-.989-3.088.725-4.8Z" transform="translate(-50.293 -15.926)" fill="#09b5a9" fill-rule="evenodd"/>
    </g>
  </g>
</svg>
