<svg xmlns="http://www.w3.org/2000/svg" width="11.208" height="15.455" viewBox="0 0 11.208 15.455">
  <g id="Subtraction_2" data-name="Subtraction 2" transform="translate(304 4071)" fill="none">
    <path d="M-298.4-4055.545h0c-.056-.064-5.6-6.413-5.6-9.592a5.744,5.744,0,0,1,5.6-5.862,5.744,5.744,0,0,1,5.6,5.862c0,3.179-5.547,9.528-5.6,9.592Zm-.114-12.157a2.376,2.376,0,0,0-2.294,2.446,2.376,2.376,0,0,0,2.294,2.446,2.376,2.376,0,0,0,2.294-2.446A2.376,2.376,0,0,0-298.51-4067.7Z" stroke="none"/>
    <path d="M -298.3957824707031 -4057.102294921875 C -297.8671875 -4057.751708984375 -297.1241455078125 -4058.698974609375 -296.3826904296875 -4059.760009765625 C -294.12841796875 -4062.985595703125 -293.7918090820312 -4064.513916015625 -293.7918090820312 -4065.137939453125 C -293.7918090820312 -4067.819091796875 -295.8571472167969 -4070.000244140625 -298.3957824707031 -4070.000244140625 C -300.9343872070312 -4070.000244140625 -302.9997253417969 -4067.819091796875 -302.9997253417969 -4065.137939453125 C -302.9997253417969 -4064.513916015625 -302.6631469726562 -4062.985595703125 -300.4088745117188 -4059.760009765625 C -299.6673889160156 -4058.698974609375 -298.92431640625 -4057.75146484375 -298.3957824707031 -4057.102294921875 M -298.5101928710938 -4068.702392578125 C -296.6940612792969 -4068.702392578125 -295.2165222167969 -4067.156494140625 -295.2165222167969 -4065.25634765625 C -295.2165222167969 -4063.3564453125 -296.6940612792969 -4061.810546875 -298.5101928710938 -4061.810546875 C -300.3263549804688 -4061.810546875 -301.8038940429688 -4063.3564453125 -301.8038940429688 -4065.25634765625 C -301.8038940429688 -4067.156494140625 -300.3263549804688 -4068.702392578125 -298.5101928710938 -4068.702392578125 M -298.3957824707031 -4055.54541015625 L -298.3965454101562 -4055.546142578125 C -298.4525756835938 -4055.60986328125 -303.9997253417969 -4061.958740234375 -303.9997253417969 -4065.137939453125 C -303.9997253417969 -4068.370361328125 -301.4858093261719 -4071.000244140625 -298.3957824707031 -4071.000244140625 C -295.3057556152344 -4071.000244140625 -292.7918090820312 -4068.370361328125 -292.7918090820312 -4065.137939453125 C -292.7918090820312 -4061.958740234375 -298.3389892578125 -4055.60986328125 -298.39501953125 -4055.546142578125 L -298.3957824707031 -4055.54541015625 Z M -298.5101928710938 -4067.702392578125 C -299.7749633789062 -4067.702392578125 -300.8038940429688 -4066.60498046875 -300.8038940429688 -4065.25634765625 C -300.8038940429688 -4063.90771484375 -299.7749633789062 -4062.810546875 -298.5101928710938 -4062.810546875 C -297.2454528808594 -4062.810546875 -296.2165222167969 -4063.90771484375 -296.2165222167969 -4065.25634765625 C -296.2165222167969 -4066.60498046875 -297.2454528808594 -4067.702392578125 -298.5101928710938 -4067.702392578125 Z" stroke="none" fill="#707070"/>
  </g>
</svg>
