<svg id="microsoft-teams-1" xmlns="http://www.w3.org/2000/svg" width="41.919" height="41.919" viewBox="0 0 41.919 41.919">
  <circle id="Ellipse_246" data-name="Ellipse 246" cx="6.114" cy="6.114" r="6.114" transform="translate(16.156 1.746)" fill="#7b83eb"/>
  <path id="Path_860" data-name="Path 860" d="M17.977,7H12.44l.028.122,0,.01.029.113a6.119,6.119,0,0,0,7.225,4.417V8.746A1.751,1.751,0,0,0,17.977,7Z" transform="translate(3.856 2.17)" opacity="0.1"/>
  <path id="Path_861" data-name="Path 861" d="M16.561,8H12.783a6.114,6.114,0,0,0,5.524,3.494V9.746A1.751,1.751,0,0,0,16.561,8Z" transform="translate(3.963 2.48)" opacity="0.2"/>
  <ellipse id="Ellipse_247" data-name="Ellipse 247" cx="4" cy="4.5" rx="4" ry="4.5" transform="translate(32 5.419)" fill="#5059c9"/>
  <path id="Path_862" data-name="Path 862" d="M33.135,12h-10.3a.838.838,0,0,0-.838.838V23.462a6.708,6.708,0,0,0,5.2,6.66,6.558,6.558,0,0,0,7.9-6.414V13.965A1.965,1.965,0,0,0,33.135,12Z" transform="translate(6.819 3.72)" fill="#5059c9"/>
  <path id="Path_863" data-name="Path 863" d="M29.96,13.965V26.41a10.473,10.473,0,0,1-19.545,5.24,9.4,9.4,0,0,1-.655-1.31,10.961,10.961,0,0,1-.432-1.31A10.794,10.794,0,0,1,9,26.41V13.965A1.962,1.962,0,0,1,10.965,12h17.03a1.962,1.962,0,0,1,1.965,1.965Z" transform="translate(2.79 3.72)" fill="#7b83eb"/>
  <path id="Path_864" data-name="Path 864" d="M16.561,8H12.783a6.114,6.114,0,0,0,5.524,3.494V9.746A1.751,1.751,0,0,0,16.561,8Z" transform="translate(3.963 2.48)" opacity="0.2"/>
  <path id="Path_865" data-name="Path 865" d="M20.79,12V28.6a1.729,1.729,0,0,1-1.362,1.69,1.265,1.265,0,0,1-.38.052H9.76a10.961,10.961,0,0,1-.432-1.31A10.794,10.794,0,0,1,9,26.41V13.965A1.962,1.962,0,0,1,10.965,12Z" transform="translate(2.79 3.72)" opacity="0.1"/>
  <path id="Path_866" data-name="Path 866" d="M19.48,12V29.907a1.267,1.267,0,0,1-.052.38,1.729,1.729,0,0,1-1.69,1.362H10.415a9.4,9.4,0,0,1-.655-1.31,10.961,10.961,0,0,1-.432-1.31A10.794,10.794,0,0,1,9,26.41V13.965A1.962,1.962,0,0,1,10.965,12Z" transform="translate(2.79 3.72)" opacity="0.2"/>
  <path id="Path_867" data-name="Path 867" d="M19.48,12V27.287a1.75,1.75,0,0,1-1.742,1.742H9.327A10.794,10.794,0,0,1,9,26.41V13.965A1.962,1.962,0,0,1,10.965,12Z" transform="translate(2.79 3.72)" opacity="0.2"/>
  <path id="Path_868" data-name="Path 868" d="M10.965,12A1.962,1.962,0,0,0,9,13.965V26.41a10.794,10.794,0,0,0,.327,2.62h7.1a1.75,1.75,0,0,0,1.742-1.742V12Z" transform="translate(2.79 3.72)" opacity="0.2"/>
  <path id="Path_869" data-name="Path 869" d="M1.746,8H19.214A1.746,1.746,0,0,1,20.96,9.746V27.214a1.746,1.746,0,0,1-1.746,1.746H1.746A1.746,1.746,0,0,1,0,27.214V9.746A1.746,1.746,0,0,1,1.746,8Z" transform="translate(0 2.48)" fill="#4b53bc"/>
  <path id="Path_870" data-name="Path 870" d="M14.447,13.586H10.531V24.092H7.96V13.586H4.02V11.005H14.447Z" transform="translate(1.246 3.411)" fill="#fff"/>
  <path id="Path_871" data-name="Path 871" d="M0,0H41.919V41.919H0Z" fill="none"/>
</svg>
