<svg xmlns="http://www.w3.org/2000/svg" width="15.539" height="14.429" viewBox="0 0 15.539 14.429">
  <path id="Icon_ionic-ios-star-outline" data-name="Icon ionic-ios-star-outline" d="M17.2,8.37H12.1l-1.55-4.627a.562.562,0,0,0-1.054,0L7.942,8.37H2.8a.557.557,0,0,0-.555.555.408.408,0,0,0,.01.094.533.533,0,0,0,.232.392l4.194,2.955L5.077,17.045a.557.557,0,0,0,.191.624.537.537,0,0,0,.312.135.68.68,0,0,0,.347-.125l4.093-2.917,4.093,2.917a.65.65,0,0,0,.347.125.5.5,0,0,0,.309-.135.55.55,0,0,0,.191-.624L13.35,12.366l4.159-2.983.1-.087A.53.53,0,0,0,17.2,8.37Zm-4.412,3.208a.974.974,0,0,0-.354,1.1l1.044,3.042a.139.139,0,0,1-.212.16l-2.685-1.915a.969.969,0,0,0-.565-.18.951.951,0,0,0-.562.18L6.77,15.879a.139.139,0,0,1-.212-.16L7.6,12.678a.977.977,0,0,0-.357-1.11L4.435,9.587a.139.139,0,0,1,.08-.253H7.939a.97.97,0,0,0,.919-.663L9.884,5.612a.14.14,0,0,1,.264,0l1.027,3.059a.97.97,0,0,0,.919.663h3.375a.137.137,0,0,1,.08.25Z" transform="translate(-2.25 -3.375)" fill="#a1a1a1"/>
</svg>
