<svg xmlns="http://www.w3.org/2000/svg" width="19.03" height="15.754" viewBox="0 0 19.03 15.754">
  <g id="Icon_feather-users" data-name="Icon feather-users" transform="translate(0.5 0.502)">
    <path id="Path_37" data-name="Path 37" d="M14.613,27.417V25.778A3.278,3.278,0,0,0,11.335,22.5H4.778A3.278,3.278,0,0,0,1.5,25.778v1.639" transform="translate(-1.5 -12.665)" fill="none" stroke="#707070" stroke-linecap="round" stroke-linejoin="round" stroke-width="1"/>
    <path id="Path_38" data-name="Path 38" d="M14.057,7.778A3.278,3.278,0,1,1,10.778,4.5,3.278,3.278,0,0,1,14.057,7.778Z" transform="translate(-4.222 -4.5)" fill="none" stroke="#707070" stroke-linecap="round" stroke-linejoin="round" stroke-width="1"/>
    <path id="Path_39" data-name="Path 39" d="M32.459,27.506V25.867A3.278,3.278,0,0,0,30,22.7" transform="translate(-14.428 -12.754)" fill="none" stroke="#707070" stroke-linecap="round" stroke-linejoin="round" stroke-width="1"/>
    <path id="Path_40" data-name="Path 40" d="M24,4.7a3.278,3.278,0,0,1,0,6.352" transform="translate(-11.707 -4.589)" fill="none" stroke="#707070" stroke-linecap="round" stroke-linejoin="round" stroke-width="1"/>
  </g>
</svg>
