<?xml version="1.0" standalone="no"?>
<svg xmlns:xlink="http://www.w3.org/1999/xlink" id="wave" style="transform:rotate(0deg); transition: 0.3s" viewBox="0 0 1440 430" version="1.1" xmlns="http://www.w3.org/2000/svg"><defs><linearGradient id="sw-gradient-0" x1="0" x2="0" y1="1" y2="0"><stop stop-color="rgba(9, 181, 169, 1)" offset="0%"/><stop stop-color="rgba(235, 225, 252, 1)" offset="100%"/></linearGradient></defs><path style="transform:translate(0, 0px); opacity:1" fill="url(#sw-gradient-0)" d="M0,215L24,229.3C48,244,96,272,144,279.5C192,287,240,272,288,250.8C336,229,384,201,432,193.5C480,186,528,201,576,222.2C624,244,672,272,720,243.7C768,215,816,129,864,86C912,43,960,43,1008,64.5C1056,86,1104,129,1152,150.5C1200,172,1248,172,1296,186.3C1344,201,1392,229,1440,243.7C1488,258,1536,258,1584,229.3C1632,201,1680,143,1728,136.2C1776,129,1824,172,1872,215C1920,258,1968,301,2016,315.3C2064,330,2112,315,2160,286.7C2208,258,2256,215,2304,229.3C2352,244,2400,315,2448,344C2496,373,2544,358,2592,351.2C2640,344,2688,344,2736,308.2C2784,272,2832,201,2880,193.5C2928,186,2976,244,3024,236.5C3072,229,3120,158,3168,107.5C3216,57,3264,29,3312,28.7C3360,29,3408,57,3432,71.7L3456,86L3456,430L3432,430C3408,430,3360,430,3312,430C3264,430,3216,430,3168,430C3120,430,3072,430,3024,430C2976,430,2928,430,2880,430C2832,430,2784,430,2736,430C2688,430,2640,430,2592,430C2544,430,2496,430,2448,430C2400,430,2352,430,2304,430C2256,430,2208,430,2160,430C2112,430,2064,430,2016,430C1968,430,1920,430,1872,430C1824,430,1776,430,1728,430C1680,430,1632,430,1584,430C1536,430,1488,430,1440,430C1392,430,1344,430,1296,430C1248,430,1200,430,1152,430C1104,430,1056,430,1008,430C960,430,912,430,864,430C816,430,768,430,720,430C672,430,624,430,576,430C528,430,480,430,432,430C384,430,336,430,288,430C240,430,192,430,144,430C96,430,48,430,24,430L0,430Z"/><defs><linearGradient id="sw-gradient-1" x1="0" x2="0" y1="1" y2="0"><stop stop-color="rgba(9, 181, 169, 1)" offset="0%"/><stop stop-color="rgba(235, 225, 252, 1)" offset="100%"/></linearGradient></defs><path style="transform:translate(0, 50px); opacity:0.9" fill="url(#sw-gradient-1)" d="M0,0L24,57.3C48,115,96,229,144,243.7C192,258,240,172,288,121.8C336,72,384,57,432,93.2C480,129,528,215,576,243.7C624,272,672,244,720,207.8C768,172,816,129,864,143.3C912,158,960,229,1008,222.2C1056,215,1104,129,1152,114.7C1200,100,1248,158,1296,186.3C1344,215,1392,215,1440,229.3C1488,244,1536,272,1584,272.3C1632,272,1680,244,1728,215C1776,186,1824,158,1872,121.8C1920,86,1968,43,2016,64.5C2064,86,2112,172,2160,172C2208,172,2256,86,2304,50.2C2352,14,2400,29,2448,93.2C2496,158,2544,272,2592,279.5C2640,287,2688,186,2736,136.2C2784,86,2832,86,2880,114.7C2928,143,2976,201,3024,250.8C3072,301,3120,344,3168,365.5C3216,387,3264,387,3312,365.5C3360,344,3408,301,3432,279.5L3456,258L3456,430L3432,430C3408,430,3360,430,3312,430C3264,430,3216,430,3168,430C3120,430,3072,430,3024,430C2976,430,2928,430,2880,430C2832,430,2784,430,2736,430C2688,430,2640,430,2592,430C2544,430,2496,430,2448,430C2400,430,2352,430,2304,430C2256,430,2208,430,2160,430C2112,430,2064,430,2016,430C1968,430,1920,430,1872,430C1824,430,1776,430,1728,430C1680,430,1632,430,1584,430C1536,430,1488,430,1440,430C1392,430,1344,430,1296,430C1248,430,1200,430,1152,430C1104,430,1056,430,1008,430C960,430,912,430,864,430C816,430,768,430,720,430C672,430,624,430,576,430C528,430,480,430,432,430C384,430,336,430,288,430C240,430,192,430,144,430C96,430,48,430,24,430L0,430Z"/></svg>