<svg xmlns="http://www.w3.org/2000/svg" xmlns:xlink="http://www.w3.org/1999/xlink" width="456" height="251" viewBox="0 0 456 251">
  <defs>
    <clipPath id="clip-path">
      <rect id="Rectangle_1920" data-name="Rectangle 1920" width="456" height="251" rx="12" fill="#f6f4f9"/>
    </clipPath>
  </defs>
  <g id="Mask_Group_45" data-name="Mask Group 45" opacity="0.5" clip-path="url(#clip-path)">
    <g id="Group_9557" data-name="Group 9557" transform="translate(-41.621 570.629) rotate(-120)">
      <path id="Path_9788" data-name="Path 9788" d="M175.639,291.192c89.039,7.632,155.033-51.218,147.4-131.444S237.04,8.3,148,.666-7.031,51.884.6,132.11,86.6,283.56,175.639,291.192Z" transform="translate(0 22.282)" fill="#8c78ab"/>
      <path id="Path_9789" data-name="Path 9789" d="M175.639,291.192c89.039,7.632,155.033-51.218,147.4-131.444S237.04,8.3,148,.666-7.031,51.884.6,132.11,86.6,283.56,175.639,291.192Z" transform="translate(29.477 19.087)" fill="#8c78ab" opacity="0.49" style="mix-blend-mode: multiply;isolation: isolate"/>
      <path id="Path_9790" data-name="Path 9790" d="M175.639,291.192c89.039,7.632,155.033-51.218,147.4-131.444S237.04,8.3,148,.666-7.031,51.884.6,132.11,86.6,283.56,175.639,291.192Z" transform="translate(127.819 0)" fill="#8c78ab" style="mix-blend-mode: screen;isolation: isolate"/>
    </g>
    <g id="Group_9558" data-name="Group 9558" transform="matrix(0.588, 0.809, -0.809, 0.588, 528.799, -386.182)" opacity="0.45">
      <path id="Path_9791" data-name="Path 9791" d="M174.085,297.407c87.356,8.381,151.378-51.225,143-133.135S231.09,9.167,143.734.786-7.644,52.011.737,133.921,86.729,289.026,174.085,297.407Z" transform="translate(0 0)" fill="#8c78ab"/>
      <path id="Path_9792" data-name="Path 9792" d="M174.085,297.407c87.356,8.381,151.378-51.225,143-133.135S231.09,9.167,143.734.786-7.644,52.011.737,133.921,86.729,289.026,174.085,297.407Z" transform="translate(6.445 62.989)" fill="#8c78ab" opacity="0.49" style="mix-blend-mode: multiply;isolation: isolate"/>
      <path id="Path_9793" data-name="Path 9793" d="M174.085,297.407c87.356,8.381,151.378-51.225,143-133.135S231.09,9.167,143.734.786-7.644,52.011.737,133.921,86.729,289.026,174.085,297.407Z" transform="translate(104.541 40.648)" fill="#8c78ab" style="mix-blend-mode: screen;isolation: isolate"/>
    </g>
  </g>
</svg>
