<svg xmlns="http://www.w3.org/2000/svg" width="105" height="92" viewBox="0 0 105 92">
  <g id="Group_9569" data-name="Group 9569" transform="translate(-9057.193 -348)">
    <circle id="Oval" cx="18" cy="18" r="18" transform="translate(9057.193 404)" fill="#dfcff9"/>
    <circle id="Oval_" data-name="Oval " cx="4" cy="4" r="4" transform="translate(9154.193 392)" fill="#dfcff9"/>
    <circle id="Oval_2" data-name="Oval " cx="4" cy="4" r="4" transform="translate(9074.193 362)" fill="#d4faff"/>
    <circle id="Oval_3" data-name="Oval " cx="11" cy="11" r="11" transform="translate(9128.193 348)" fill="#dfcff9"/>
    <g id="gift" transform="translate(9060.482 348)">
      <path id="Vector" d="M0,31.385C0,43.154,3.923,47.077,15.692,47.077H47.077c11.769,0,15.692-3.923,15.692-15.692V0H0V15.065" transform="translate(15.575 35.678)" fill="none" stroke="#5c2ba8" stroke-linecap="round" stroke-linejoin="round" stroke-width="1.5"/>
      <path id="Vector-2" data-name="Vector" d="M74.539,7.846v3.923c0,4.315-2.079,7.846-7.846,7.846H7.846c-6,0-7.846-3.531-7.846-7.846V7.846C0,3.531,1.844,0,7.846,0H66.693C72.46,0,74.539,3.531,74.539,7.846Z" transform="translate(9.808 18.681)" fill="none" stroke="#5c2ba8" stroke-linecap="round" stroke-linejoin="round" stroke-width="1.5"/>
      <path id="Vector-3" data-name="Vector" d="M22.627,11.76H.972a3.674,3.674,0,0,1,.118-5.1L6.66,1.089a3.765,3.765,0,0,1,5.3,0Z" transform="translate(23.038 7.856)" fill="none" stroke="#5c2ba8" stroke-linecap="round" stroke-linejoin="round" stroke-width="1.5"/>
      <path id="Vector-4" data-name="Vector" d="M21.656,11.76H0L10.671,1.089a3.765,3.765,0,0,1,5.3,0l5.571,5.571A3.674,3.674,0,0,1,21.656,11.76Z" transform="translate(48.45 7.856)" fill="none" stroke="#5c2ba8" stroke-linecap="round" stroke-linejoin="round" stroke-width="1.5"/>
      <path id="Vector-5" data-name="Vector" d="M0,0V20.165a3.932,3.932,0,0,0,6.081,3.3l3.688-2.432a3.92,3.92,0,0,1,4.315,0l3.492,2.354a3.911,3.911,0,0,0,6.081-3.256V0Z" transform="translate(35.073 37.241)" fill="none" stroke="#5c2ba8" stroke-linecap="round" stroke-linejoin="round" stroke-width="1.5"/>
      <path id="Vector-6" data-name="Vector" d="M0,0H94.155V90.6H0Z" fill="none" opacity="0"/>
    </g>
  </g>
</svg>
