<svg id="Group_78" data-name="Group 78" xmlns="http://www.w3.org/2000/svg" xmlns:xlink="http://www.w3.org/1999/xlink" width="89.408" height="95.632" viewBox="0 0 89.408 95.632">
  <defs>
    <clipPath id="clip-path">
      <rect id="Rectangle_83" data-name="Rectangle 83" width="89.408" height="95.632" fill="#09b5a9"/>
    </clipPath>
  </defs>
  <g id="Group_46" data-name="Group 46" clip-path="url(#clip-path)">
    <path id="Path_9197" data-name="Path 9197" d="M3.827,153.977c-4.236-4.917-4.758-8.426-1.756-11.369,3.048-2.988,6.45-2.431,11.322,1.9.165-.211.34-.409.485-.626a6.61,6.61,0,0,1,10.363-1.215c1.2,1.122,2.28,2.37,3.455,3.6.248-.29.382-.419.483-.57,2.676-4.006,7.269-4.556,10.734-1.207,2.845,2.749,5.612,5.58,8.39,8.4a7.819,7.819,0,0,1,.858,1.3l.18-.658c2.752-1.147,5.413-2.661,8.274-3.369a18.8,18.8,0,0,1,18.09,4.613c4.768,4.411,9.256,9.126,13.847,13.728,1.086,1.088,1.121,2.363.2,3.242-.889.847-2.167.755-3.256-.326q-6.167-6.124-12.3-12.283c-7.175-7.166-16.772-7.181-23.939-.04-1.735,1.729-3.488,3.441-5.187,5.205a3.44,3.44,0,0,1-2.737,1.149c-5.087-.086-10.175-.1-15.262-.128a8.091,8.091,0,0,0-1.824.126,2.332,2.332,0,0,0-.051,4.512,7.667,7.667,0,0,0,1.82.171q7.419.07,14.838.112a10.17,10.17,0,0,1,1.13.025,2.137,2.137,0,0,1,2.027,2.139,2.1,2.1,0,0,1-2.1,2.057c-1.127.062-2.26.02-3.391.013-4.287-.027-8.573-.042-12.86-.094-4.221-.051-6.216-1.623-7.411-5.716a2.624,2.624,0,0,0-.675-1.034q-4.378-4.415-8.786-8.8c-.1-.1-.2-.2-.306-.293a2.476,2.476,0,0,0-3.543-.1,2.422,2.422,0,0,0,.2,3.534c.861.934,1.8,1.8,2.685,2.71,1.144,1.176,1.277,2.452.375,3.355s-2.19.77-3.362-.36c-.746-.719-1.47-1.461-2.2-2.194-3.9-3.913-3.451-8.467,1.19-11.512m19.781,6.917a3.543,3.543,0,0,0-.288-.356q-7.241-7.249-14.49-14.489a4.133,4.133,0,0,0-.878-.7,2.224,2.224,0,0,0-2.849.3,2.224,2.224,0,0,0-.343,2.959,6.483,6.483,0,0,0,1.012,1.17q6.388,6.4,12.789,12.793c.322.322.668.619.841.778l4.206-2.457m12.992.228c-.337-.4-.493-.618-.68-.8q-7.124-7.132-14.259-14.256c-1.282-1.277-2.7-1.421-3.736-.444-1.106,1.045-1.005,2.481.335,3.83q5.466,5.5,10.98,10.955a2.407,2.407,0,0,0,1.429.688c1.875.08,3.755.032,5.931.032m8.69-4.171c-3.264-3.284-6.423-6.506-9.637-9.671a2.266,2.266,0,0,0-3.3-.049,2.19,2.19,0,0,0-.137,3.278c3.215,3.277,6.525,6.462,9.82,9.7l3.256-3.263" transform="translate(0 -90.877)" fill="#09b5a9"/>
    <path id="Path_9198" data-name="Path 9198" d="M109.391,58.733A13.43,13.43,0,1,1,122.879,45.3a13.472,13.472,0,0,1-13.488,13.438m0-4.241a9.189,9.189,0,0,0,9.231-9.086,9.181,9.181,0,1,0-18.362-.09,9.168,9.168,0,0,0,9.131,9.176" transform="translate(-62.008 -20.587)" fill="#09b5a9"/>
    <path id="Path_9199" data-name="Path 9199" d="M98.292,242.857c-.511.606-.906,1.515-1.443,1.607a3.448,3.448,0,0,1-2.541-.528,62.964,62.964,0,0,1-4.926-4.86,2.15,2.15,0,0,0-2.327-.73c-4.181.918-8.386,1.727-12.59,2.536a14.309,14.309,0,0,1-2.666.239c-8.764.017-17.527-.013-26.29.033a4.647,4.647,0,0,1-3.738-1.558c-1.628-1.764-3.392-3.4-5.079-5.114-1.184-1.2-1.306-2.406-.391-3.344s2.152-.855,3.341.309c1.582,1.549,3.1,3.163,4.722,4.67a2.781,2.781,0,0,0,1.7.722c8.716.045,17.438.216,26.146-.06,3.529-.112,7.028-1.225,10.539-1.892,1.8-.343,3.61-.668,5.4-1.075a2.7,2.7,0,0,1,2.7.772c2.133,2.132,4.287,4.243,6.381,6.411a9.312,9.312,0,0,1,1.055,1.863" transform="translate(-23.058 -148.88)" fill="#09b5a9"/>
    <path id="Path_9200" data-name="Path 9200" d="M174.733,39.066c-.832-.777-1.676-1.219-1.9-1.872a2.326,2.326,0,0,1,.461-2.106,24.526,24.526,0,0,1,4.84-2.775,2.433,2.433,0,0,1,2.123.774c.382.468.476,1.848.134,2.12-1.721,1.371-3.625,2.51-5.659,3.86" transform="translate(-111.586 -20.834)" fill="#09b5a9"/>
    <path id="Path_9201" data-name="Path 9201" d="M80.63,35.866c.035,1.8-1.46,2.916-2.831,2.285a32.121,32.121,0,0,1-4.488-2.588,1.819,1.819,0,0,1-.49-2.623,1.839,1.839,0,0,1,2.524-.872,46.419,46.419,0,0,1,4.487,2.591c.447.292.646.964.8,1.207" transform="translate(-46.811 -20.571)" fill="#09b5a9"/>
    <path id="Path_9202" data-name="Path 9202" d="M160.572,114.8c-.563.619-.984,1.478-1.59,1.64a2.574,2.574,0,0,1-2.239-.49,21.043,21.043,0,0,1-2.686-4.6,2.431,2.431,0,0,1,.634-2.194,2.364,2.364,0,0,1,2.252-.207c1.8,1.442,2.508,3.635,3.629,5.847" transform="translate(-99.459 -70.244)" fill="#09b5a9"/>
    <path id="Path_9203" data-name="Path 9203" d="M180.437,93.6a2.128,2.128,0,0,1-2.969,2.125,34.58,34.58,0,0,1-4.273-2.462,1.863,1.863,0,0,1-.636-2.611,1.766,1.766,0,0,1,2.348-1.024,42.884,42.884,0,0,1,4.872,2.8c.4.259.532.937.659,1.178" transform="translate(-111.275 -57.787)" fill="#09b5a9"/>
    <path id="Path_9204" data-name="Path 9204" d="M103.257,14.735c-.815.85-1.3,1.754-1.986,1.953a2.5,2.5,0,0,1-2.191-.668,18.362,18.362,0,0,1-2.517-4.379,2.725,2.725,0,0,1,.621-2.332c.391-.414,1.842-.559,2.1-.238,1.393,1.705,2.559,3.6,3.969,5.665" transform="translate(-62.321 -5.746)" fill="#09b5a9"/>
    <path id="Path_9205" data-name="Path 9205" d="M160.211,10.292a13.789,13.789,0,0,1-.616,1.623c-.684,1.233-1.366,2.473-2.138,3.651a1.939,1.939,0,0,1-2.709.74,1.962,1.962,0,0,1-.969-2.657,36.918,36.918,0,0,1,2.55-4.381,1.708,1.708,0,0,1,2.361-.629,7.338,7.338,0,0,1,1.52,1.653" transform="translate(-99.196 -5.421)" fill="#09b5a9"/>
    <path id="Path_9206" data-name="Path 9206" d="M183.654,68.087c-.754,0-1.509.033-2.26-.008a1.939,1.939,0,0,1-2.048-1.908,1.83,1.83,0,0,1,1.717-2.186,32.78,32.78,0,0,1,5.2,0,1.849,1.849,0,0,1,1.719,2.193,1.957,1.957,0,0,1-2.072,1.9c-.752.027-1.507,0-2.26,0" transform="translate(-115.837 -41.263)" fill="#09b5a9"/>
    <path id="Path_9207" data-name="Path 9207" d="M80.708,92.126A5.969,5.969,0,0,1,79.5,93.6a31.6,31.6,0,0,1-3.655,2.128,2.1,2.1,0,0,1-2.963-.693,2.034,2.034,0,0,1,.821-2.91,41.976,41.976,0,0,1,3.787-2.188c1.54-.771,3.155.143,3.22,2.186" transform="translate(-46.868 -57.918)" fill="#09b5a9"/>
    <path id="Path_9208" data-name="Path 9208" d="M128.079,4.337c0-.8-.048-1.6.011-2.4A1.926,1.926,0,0,1,130.117,0a1.829,1.829,0,0,1,2.037,1.747,41.349,41.349,0,0,1-.006,5.207A1.815,1.815,0,0,1,130.1,8.678a1.872,1.872,0,0,1-1.986-1.8,25.152,25.152,0,0,1-.017-2.537h-.02" transform="translate(-82.717 0)" fill="#09b5a9"/>
    <path id="Path_9209" data-name="Path 9209" d="M102.591,110.448a12.822,12.822,0,0,1-.605,1.619c-.714,1.268-1.406,2.557-2.235,3.749a1.928,1.928,0,0,1-2.748.562,1.868,1.868,0,0,1-.825-2.564,24.9,24.9,0,0,1,2.669-4.455,2.507,2.507,0,0,1,2.224-.524c.639.2,1.063,1.094,1.52,1.613" transform="translate(-61.98 -70.252)" fill="#09b5a9"/>
    <path id="Path_9210" data-name="Path 9210" d="M68.457,68.138c-.8,0-1.6.045-2.4-.01a1.9,1.9,0,0,1-1.922-1.881A1.781,1.781,0,0,1,65.706,64.1a33.746,33.746,0,0,1,5.473,0,1.776,1.776,0,0,1,1.584,2.141,1.9,1.9,0,0,1-1.906,1.892c-.795.064-1.6.012-2.4.013" transform="translate(-41.419 -41.328)" fill="#09b5a9"/>
    <path id="Path_9211" data-name="Path 9211" d="M127.869,119.5c.04-.845.032-1.7.13-2.533a1.846,1.846,0,0,1,1.912-1.724,1.8,1.8,0,0,1,2.1,1.651,38.792,38.792,0,0,1,0,5.341,1.786,1.786,0,0,1-2.09,1.65,1.863,1.863,0,0,1-1.94-1.847c-.074-.84-.015-1.691-.015-2.537l-.1,0" transform="translate(-82.593 -74.438)" fill="#09b5a9"/>
  </g>
</svg>
