<svg xmlns="http://www.w3.org/2000/svg" xmlns:xlink="http://www.w3.org/1999/xlink" width="723" height="309" viewBox="0 0 723 309">
  <defs>
    <clipPath id="clip-path">
      <rect id="Rectangle_1678" data-name="Rectangle 1678" width="723" height="309" rx="16" transform="translate(302 49)" fill="#f6f4f9"/>
    </clipPath>
    <clipPath id="clip-path-2">
      <rect id="Rectangle_1687" data-name="Rectangle 1687" width="249.639" height="320.614" fill="none"/>
    </clipPath>
    <clipPath id="clip-path-4">
      <path id="Path_9526" data-name="Path 9526" d="M121.359,119.273l12.818,3.576c-17.905,25.805-45.811,49.05-45.811,49.05,6.156-35.117,14.834-52.626,14.834-52.626Z" transform="translate(-88.366 -119.273)" fill="none"/>
    </clipPath>
    <clipPath id="clip-path-6">
      <path id="Path_9557" data-name="Path 9557" d="M119.419,53.471s-6.342,8.319-16.081,2.132a8.288,8.288,0,0,1,7.674-4.8,17.235,17.235,0,0,1,8.407,2.668" transform="translate(-103.338 -50.803)" fill="none"/>
    </clipPath>
    <clipPath id="clip-path-8">
      <path id="Path_9561" data-name="Path 9561" d="M144.863,55.283c-6.647,5.912-10.51-3.046-10.51-3.046a6.956,6.956,0,0,1,4.613-2.222c3.9,0,5.9,5.268,5.9,5.268" transform="translate(-134.353 -50.015)" fill="none"/>
    </clipPath>
    <clipPath id="clip-path-10">
      <rect id="Rectangle_1684" data-name="Rectangle 1684" width="21.799" height="21.798" fill="none"/>
    </clipPath>
    <clipPath id="clip-path-11">
      <rect id="Rectangle_1685" data-name="Rectangle 1685" width="19.711" height="21.798" fill="none"/>
    </clipPath>
  </defs>
  <g id="Mask_Group_31" data-name="Mask Group 31" transform="translate(-302 -49)" clip-path="url(#clip-path)">
    <path id="blob" d="M124.23-70.385c19.268,12.953,31.9,35.3,41.936,57.642C176.2,9.44,183.491,31.623,186.405,55.424s1.133,49.222-10.525,68.652-33.355,32.869-55.375,39.993-44.527,8.1-68.329,10.686c-23.964,2.753-49.384,6.962-71.243-.324-21.7-7.286-39.993-26.23-52.3-48.251S-89.985,78.9-84.8,56.881C-79.461,34.7-62.46,15.593-50.316-6.752c11.982-22.344,19.268-47.927,35.783-62.5C1.983-83.662,27.728-86.9,53.634-86.9,79.379-86.738,105.123-83.338,124.23-70.385Z" transform="matrix(0.899, 0.438, -0.438, 0.899, 790.132, 337.353)" fill="#c8b6e2"/>
    <g id="Group_9342" data-name="Group 9342" transform="translate(654.506 80.04)">
      <g id="Group_9341" data-name="Group 9341" clip-path="url(#clip-path-2)">
        <g id="Group_9322" data-name="Group 9322">
          <g id="Group_9321" data-name="Group 9321" clip-path="url(#clip-path-2)">
            <path id="Path_9516" data-name="Path 9516" d="M60.918,9.587s0-17,32.7-5.722c28.329,9.774,19.835,30.19,30.58,63.139,13.289,40.754-18.666,54.715-33.875,51.012l-30.9-1.255L51.156,78.1Z" transform="translate(78.42 0)"/>
            <path id="Path_9517" data-name="Path 9517" d="M141.128,14.293s-6.03-10.47-15.594-5.646c-9.793,4.94-11.9,15.2-10.324,30.653,1.969,19.283-29.685,52.344,12.922,77.423l26.725,1.089Z" transform="translate(4.119 -1.052)"/>
            <path id="Path_9518" data-name="Path 9518" d="M219.839,143.246s-11.8,26.058-94.683,67.764l-22.7-25.155,81.141-55.1Z" transform="translate(-58.053 -18.64)" fill="#fff"/>
            <path id="Path_9519" data-name="Path 9519" d="M233.822,177.108,220.5,115.678l12.471-1.066,17.186,48.141q-7.915,7.527-16.334,14.355" transform="translate(-189.583 -16.339)" fill="#af6f3b"/>
            <path id="Path_9520" data-name="Path 9520" d="M283.7,107.345l-.128-3.251a27.884,27.884,0,0,0-3.491-12.454l-3.738-6.727a2.956,2.956,0,0,0-4.429-.873,3.783,3.783,0,0,0-1.262,4.044L273,95.907,252.556,76.555a2.29,2.29,0,0,0-3.429.225l-.564.733a2.289,2.289,0,0,0,.085,2.9l13.286,13.511L244.526,80.513a2.29,2.29,0,0,0-3.4.438l-.382.563a2.288,2.288,0,0,0,.387,3.008l14.72,12.719-13.3-7.2a2.289,2.289,0,0,0-3.331,1.279l-.09.28A2.289,2.289,0,0,0,240,94.174l13.279,8.465-7.831-2.779a2.289,2.289,0,0,0-2.309,3.947l33.741,20.9,4.476-7.8a17.822,17.822,0,0,0,2.347-9.561" transform="translate(-239.026 -10.819)" fill="#af6f3b"/>
            <path id="Path_9521" data-name="Path 9521" d="M253.244,99.235a15.048,15.048,0,0,0-.641,12.773" transform="translate(-219.267 -14.147)" fill="none" stroke="#000" stroke-linecap="round" stroke-linejoin="round" stroke-width="0.99"/>
            <path id="Path_9522" data-name="Path 9522" d="M247.657,186.844,228.5,130l-24.609,9.374L215.415,200.4a17.484,17.484,0,0,0,23.615,11.918c8.875-3.654,13.145-13.779,8.627-25.477" transform="translate(-174.664 -18.532)" fill="#fff"/>
            <line id="Line_459" data-name="Line 459" x2="4.423" y2="13.609" transform="translate(67.56 151.491)" fill="none" stroke="#cfdbf7" stroke-linecap="round" stroke-linejoin="round" stroke-width="1.406"/>
            <path id="Path_9523" data-name="Path 9523" d="M133.11,122.85s20.188,7.513,26.841,12.743,8.039,16.763,2.716,32.732-23.93,70.529-23.93,70.529l23.881,98.162H50.087L65.3,240.262,63.695,211.8s-10.508-29.3-.433-52.786c13.941-32.491,38.869-39.735,38.869-39.735Z" transform="translate(40.761 -17.004)" fill="#fff"/>
            <path id="Path_9524" data-name="Path 9524" d="M103.2,119.274S94.522,136.783,88.365,171.9c0,0,27.906-23.243,45.812-49.05l-12.818-3.576Z" transform="translate(39.694 -17.004)" fill="#af6f3b"/>
          </g>
        </g>
        <g id="Group_9324" data-name="Group 9324" transform="translate(128.059 102.269)">
          <g id="Group_9323" data-name="Group 9323" transform="translate(0)" clip-path="url(#clip-path-4)">
            <path id="Path_9525" data-name="Path 9525" d="M150.333,146.6s-45.734-11.213-68.327-5.642l-2.125,42.867,30.935,8.1,23.664-37.78" transform="translate(-97.248 -122.143)" fill="#c8b6e2"/>
          </g>
        </g>
        <g id="Group_9326" data-name="Group 9326">
          <g id="Group_9325" data-name="Group 9325" clip-path="url(#clip-path-2)">
            <path id="Path_9527" data-name="Path 9527" d="M154.666,180.649l-10.254,25.373-2.618,139.743" transform="translate(-26.607 -25.754)" fill="none" stroke="#cfdbf7" stroke-linecap="round" stroke-linejoin="round" stroke-width="1.406"/>
            <path id="Path_9528" data-name="Path 9528" d="M134.661,124.426l9.8,18.8L128.383,146.2l2.654,12.474L78.22,197.887,76.5,150.426l9.54-7.758-3.593-6.227,13.5-12.857" transform="translate(39.585 -17.618)" fill="none" stroke="#cfdbf7" stroke-linecap="round" stroke-linejoin="round" stroke-width="1.406"/>
            <path id="Path_9529" data-name="Path 9529" d="M165.225,197.281s-.465-24.1,8.3-39.394" transform="translate(-65.557 -22.509)" fill="none" stroke="#cfdbf7" stroke-linecap="round" stroke-linejoin="round" stroke-width="1.406"/>
            <path id="Path_9530" data-name="Path 9530" d="M97.819,178.888l.8-5.777a6.531,6.531,0,0,0-12.8-2.523l-1.015,6.493" transform="translate(78.235 -23.62)" fill="none" stroke="#000" stroke-width="1.572"/>
            <path id="Path_9531" data-name="Path 9531" d="M87.572,159.369s11.415-36.6-1.593-38.4" transform="translate(83.714 -17.245)" fill="none" stroke="#000" stroke-width="1.572"/>
            <path id="Path_9532" data-name="Path 9532" d="M84.8,178.977s-7.42,44.716,14.9,29.224" transform="translate(78.245 -25.515)" fill="none" stroke="#cfdbf7" stroke-width="1.406"/>
            <path id="Path_9533" data-name="Path 9533" d="M85.146,212.573A1.93,1.93,0,1,1,83.5,210.4a1.93,1.93,0,0,1,1.646,2.177" transform="translate(94.76 -29.992)"/>
            <path id="Path_9534" data-name="Path 9534" d="M108.135,181.082s-5.048,45.046-22.3,24.057" transform="translate(67.904 -25.815)" fill="none" stroke="#cfdbf7" stroke-width="1.406"/>
            <path id="Path_9535" data-name="Path 9535" d="M109.551,208.121a1.93,1.93,0,1,0,2.177-1.646,1.93,1.93,0,0,0-2.177,1.646" transform="translate(42.329 -29.433)"/>
            <path id="Path_9536" data-name="Path 9536" d="M123.895,158.346s7.22-38.414,22.441-39.866" transform="translate(-2.929 -16.891)" fill="none" stroke="#000" stroke-width="1.572"/>
            <path id="Path_9537" data-name="Path 9537" d="M154.962,171.366c-.357,3.647-2.894,6.383-5.666,6.112s-4.731-3.448-4.375-7.094,2.894-6.383,5.667-6.111,4.73,3.447,4.374,7.094" transform="translate(-29.59 -23.416)"/>
            <path id="Path_9538" data-name="Path 9538" d="M154,171.424c-.23,2.344-1.59,4.129-3.039,3.987s-2.437-2.156-2.207-4.5,1.59-4.129,3.038-3.987,2.438,2.156,2.208,4.5" transform="translate(-31.905 -23.796)" fill="#cfdbf7"/>
            <path id="Path_9539" data-name="Path 9539" d="M14.475,136.358S44.5,146.076,65.608,249.6L33.656,260.934.269,173.663Z" transform="translate(183.8 -19.439)" fill="#fff"/>
            <line id="Line_460" data-name="Line 460" x1="7.727" y1="21.413" transform="translate(187.356 163.683)" fill="none" stroke="#cfdbf7" stroke-linecap="round" stroke-linejoin="round" stroke-width="1.406"/>
            <path id="Path_9540" data-name="Path 9540" d="M119.415,254.749l-57.8.256-4.041,13.7,57.465,7.931Z" transform="translate(80.854 -36.317)" fill="#af6f3b"/>
            <path id="Path_9541" data-name="Path 9541" d="M62.347,246.938,0,250.129l2.332,29.62,62.723,4.488c11.429-.049,19.334-7.6,17.634-18.9-1.53-10.174-10.155-19.845-20.343-18.4" transform="translate(166.719 -35.183)" fill="#fff"/>
            <path id="Path_9542" data-name="Path 9542" d="M87.226,247.329,30.2,250.2l.274,3.486" transform="translate(136.516 -35.26)" fill="none" stroke="#cfdbf7" stroke-linecap="round" stroke-linejoin="round" stroke-width="1.406"/>
            <path id="Path_9543" data-name="Path 9543" d="M69.128,276.7l.576,7.316,21.314,2.207" transform="translate(99.348 -39.446)" fill="none" stroke="#cfdbf7" stroke-linecap="round" stroke-linejoin="round" stroke-width="1.406"/>
            <path id="Path_9544" data-name="Path 9544" d="M187.838,205.613l22.785,80.849a4.688,4.688,0,0,1-4.513,5.96H153.16a4.688,4.688,0,0,1-4.484-3.316l-24.745-80.849a4.689,4.689,0,0,1,4.484-6.061h54.91a4.688,4.688,0,0,1,4.513,3.417" transform="translate(-67.247 -28.825)"/>
            <path id="Path_9545" data-name="Path 9545" d="M201.657,198.374s-3.766-5.392-12.58-4.729c-9.818.738-8.217,9.462-8.217,9.462Z" transform="translate(-107.011 -27.598)"/>
            <path id="Path_9546" data-name="Path 9546" d="M191.885,202.019l19,67.42a3.91,3.91,0,0,1-3.763,4.971H162.967a3.909,3.909,0,0,1-3.738-2.765l-20.635-67.421a3.91,3.91,0,0,1,3.738-5.054h45.791a3.91,3.91,0,0,1,3.763,2.849" transform="translate(-80.082 -28.394)"/>
            <path id="Path_9547" data-name="Path 9547" d="M191.348,205.613l22.785,80.849a4.689,4.689,0,0,1-4.513,5.96H156.669a4.688,4.688,0,0,1-4.483-3.316l-24.745-80.849a4.689,4.689,0,0,1,4.484-6.061h54.91a4.689,4.689,0,0,1,4.513,3.417" transform="translate(-73.767 -28.825)" fill="#eab65b"/>
            <path id="Path_9548" data-name="Path 9548" d="M158.8,255.053s-2.1-8.538-19.742-17.079l2.6,9.47s-8.44-1.256-20.081-6.756a2.32,2.32,0,0,0-1.981,4.2l4.081,2-6.85-1.712a2.228,2.228,0,0,0-1.459,4.191,71.024,71.024,0,0,0,7.456,2.707h0s-3.273-.379-6.625-.982a2.183,2.183,0,0,0-2.586,1.705,2.143,2.143,0,0,0,1.246,2.363,85.022,85.022,0,0,0,9.206,3.348c-3.09-.181-6.513-.786-6.991.355s-.4,2.273,8.3,4.743,20.427,6.422,28.036,4.545l9.6-3.97v-10.61Z" transform="translate(-10.759 -33.926)" fill="#af6f3b"/>
            <path id="Path_9549" data-name="Path 9549" d="M131.971,57.784c-1.034,4.449,2.059,9.339,6.909,10.92s9.621-.743,10.655-5.194-2.059-9.338-6.909-10.92-9.621.743-10.655,5.194" transform="translate(-13.082 -7.427)" fill="#965726"/>
            <path id="Path_9550" data-name="Path 9550" d="M67.905,37.471C67.65,55.516,80.022,70.3,99.454,70.579S134.846,56.448,135.1,38.4,119.812,5.5,100.38,5.229s-32.219,14.2-32.475,32.241" transform="translate(56.313 -0.745)"/>
            <path id="Path_9551" data-name="Path 9551" d="M115.377,74.159l4.934,43.493-23.6,2.742,2.032-41.124Z" transform="translate(46.408 -10.572)" fill="#af6f3b"/>
            <path id="Path_9552" data-name="Path 9552" d="M99.773,109.307l20.4-24.749-19.039-.67Z" transform="translate(43.92 -11.959)" fill="#965726"/>
            <path id="Path_9553" data-name="Path 9553" d="M119.892,16.353a38.92,38.92,0,0,0-17.564-1.006C94.465,16.792,84.359,21.365,82.976,35.2,80.67,58.254,84.5,75.592,96.263,81.045c9.033,4.186,14.561,2.765,25.053-2.908,3.9-2.111,10.363-9.9,10.5-14.5l3.995-11.357s11.314-28.2-15.919-35.924" transform="translate(40.898 -2.106)" fill="#af6f3b"/>
            <path id="Path_9554" data-name="Path 9554" d="M132.69,67.59,129.863,65.3l3.271-4.541" transform="translate(5.155 -8.662)" fill="none" stroke="#000" stroke-linecap="round" stroke-linejoin="round" stroke-width="0.809"/>
            <path id="Path_9555" data-name="Path 9555" d="M103.337,55.6s3.7-9.2,16.082-2.132c0,0-6.343,8.319-16.082,2.132" transform="translate(41.615 -7.243)" fill="#fff"/>
          </g>
        </g>
        <g id="Group_9328" data-name="Group 9328" transform="translate(144.952 43.56)">
          <g id="Group_9327" data-name="Group 9327" transform="translate(0)" clip-path="url(#clip-path-6)">
            <path id="Path_9556" data-name="Path 9556" d="M108.483,53.251a4.369,4.369,0,1,0,4.922-3.888,4.437,4.437,0,0,0-4.922,3.888" transform="translate(-105.476 -50.593)"/>
          </g>
        </g>
        <g id="Group_9330" data-name="Group 9330">
          <g id="Group_9329" data-name="Group 9329" clip-path="url(#clip-path-2)">
            <path id="Path_9558" data-name="Path 9558" d="M119.578,53.164a13.439,13.439,0,0,0-8.787-3.07,9.646,9.646,0,0,0-4.694,1.012A6.106,6.106,0,0,0,103.037,55a.566.566,0,0,0,1.1.267l0-.019.013-.065a5.11,5.11,0,0,1,2.42-3.241,8.716,8.716,0,0,1,4.232-1.052,12.781,12.781,0,0,1,8.413,2.688.273.273,0,0,0,.387-.029.279.279,0,0,0-.027-.385" transform="translate(41.634 -7.141)"/>
            <path id="Path_9559" data-name="Path 9559" d="M144.863,55.283s-3.582-9.441-10.51-3.046c0,0,3.864,8.957,10.51,3.046" transform="translate(-10.424 -7.13)" fill="#fff"/>
          </g>
        </g>
        <g id="Group_9332" data-name="Group 9332" transform="translate(123.929 42.885)">
          <g id="Group_9331" data-name="Group 9331" transform="translate(0)" clip-path="url(#clip-path-8)">
            <path id="Path_9560" data-name="Path 9560" d="M143.541,52.872c.325,2.147-.789,4.1-2.489,4.354s-3.342-1.274-3.667-3.421.789-4.1,2.489-4.354,3.341,1.274,3.667,3.421" transform="translate(-135.638 -49.931)"/>
          </g>
        </g>
        <g id="Group_9340" data-name="Group 9340">
          <g id="Group_9339" data-name="Group 9339" clip-path="url(#clip-path-2)">
            <path id="Path_9562" data-name="Path 9562" d="M134.469,52.325a4.327,4.327,0,0,1,4.568-1.854l.045.01a6.949,6.949,0,0,1,5.034,4.5l.013.033a.478.478,0,1,0,.893-.341l-.006-.015a7.754,7.754,0,0,0-5.829-4.852l.045.009a4.893,4.893,0,0,0-5.143,2.242.232.232,0,0,0,.054.323.244.244,0,0,0,.327-.059" transform="translate(-10.35 -7.086)"/>
            <path id="Path_9563" data-name="Path 9563" d="M146.833,40.371a2.286,2.286,0,0,1-1.973,2.943c-2.016.343-4.386.524-5.518,1.068a1.338,1.338,0,0,1-1.76-.653,1.869,1.869,0,0,1,.007-1.8c.635-1.094,3.074-2.785,5.524-3.241,3.145-.586,3.721,1.68,3.721,1.68" transform="translate(-15.045 -5.502)"/>
            <path id="Path_9564" data-name="Path 9564" d="M103.555,38.091s-.921,2.523,2.868,3.057a59.827,59.827,0,0,1,9.023,2.233,2.223,2.223,0,0,0,2.493-.618,1.447,1.447,0,0,0-.046-1.835c-.925-1.134-5.578-3.918-9.074-4.45-4.49-.683-5.263,1.614-5.263,1.614" transform="translate(42.687 -5.182)"/>
            <path id="Path_9565" data-name="Path 9565" d="M117.29,73.106l13.66-.331s-.013,5.559-6.489,5.7c-6.932.147-7.171-5.365-7.171-5.365" transform="translate(18.12 -10.375)" fill="#fff"/>
            <g id="Group_9335" data-name="Group 9335" transform="translate(140.962 36.677)" opacity="0.3">
              <g id="Group_9334" data-name="Group 9334" transform="translate(0)">
                <g id="Group_9333" data-name="Group 9333" transform="translate(0)" clip-path="url(#clip-path-10)">
                  <path id="Path_9566" data-name="Path 9566" d="M123.118,53.41a10.9,10.9,0,1,1-11.16-10.632,10.9,10.9,0,0,1,11.16,10.632" transform="translate(-101.323 -42.775)" fill="#fff"/>
                </g>
              </g>
            </g>
            <g id="Group_9338" data-name="Group 9338" transform="translate(115.365 37.347)" opacity="0.3">
              <g id="Group_9337" data-name="Group 9337" transform="translate(0)">
                <g id="Group_9336" data-name="Group 9336" transform="translate(0)" clip-path="url(#clip-path-11)">
                  <path id="Path_9567" data-name="Path 9567" d="M153.319,54.192c.132,6.018-4.172,11.014-9.614,11.16s-9.959-4.615-10.091-10.632,4.172-11.014,9.614-11.16,9.959,4.615,10.091,10.632" transform="translate(-133.612 -43.556)" fill="#fff"/>
                </g>
              </g>
            </g>
            <path id="Path_9568" data-name="Path 9568" d="M123.118,53.41a10.9,10.9,0,1,1-11.16-10.632A10.9,10.9,0,0,1,123.118,53.41Z" transform="translate(39.639 -6.098)" fill="none" stroke="#eab65b" stroke-width="1.01"/>
            <path id="Path_9569" data-name="Path 9569" d="M153.319,54.192c.132,6.018-4.172,11.014-9.614,11.16s-9.959-4.615-10.091-10.632,4.172-11.014,9.614-11.16S153.187,48.174,153.319,54.192Z" transform="translate(-18.247 -6.209)" fill="none" stroke="#eab65b" stroke-width="1.01"/>
            <path id="Path_9570" data-name="Path 9570" d="M126.742,55.817a5.944,5.944,0,0,1,5.893-.142" transform="translate(8.33 -7.835)" fill="none" stroke="#eab65b" stroke-width="1.01"/>
            <line id="Line_461" data-name="Line 461" x2="8.204" y2="4.623" transform="translate(162.746 47.03)" fill="none" stroke="#eab65b" stroke-width="1.01"/>
            <path id="Path_9571" data-name="Path 9571" d="M114.544,45.747S71.692,32.77,76.632,8.3c0,0,15.57-4.151,28.017,9.735s9.9,27.715,9.9,27.715" transform="translate(69.511 -1.1)"/>
            <path id="Path_9572" data-name="Path 9572" d="M79.677,43.337V65.684L90.012,49.121Z" transform="translate(91.308 -6.178)"/>
            <path id="Path_9573" data-name="Path 9573" d="M91.713,62.087c1.034,4.45-2.059,9.339-6.909,10.92s-9.621-.743-10.655-5.194,2.059-9.338,6.909-10.92,9.621.744,10.655,5.194" transform="translate(94.32 -8.04)" fill="#af6f3b"/>
            <path id="Path_9574" data-name="Path 9574" d="M87.734,63.5s-5.284-1.249-8.056,4.45" transform="translate(93.585 -9.036)" fill="none" stroke="#000" stroke-linecap="round" stroke-linejoin="round" stroke-width="0.961"/>
            <path id="Path_9575" data-name="Path 9575" d="M136.344,17.607s-7.752-2.616-11.745,2.3c-5.35,6.586-7.864,12.959-14.088,14.629,0,0-2.054-22.386,23.077-24.408l11.224,3.979Z" transform="translate(10.104 -1.444)"/>
          </g>
        </g>
      </g>
    </g>
  </g>
</svg>
